<svg width="6056" height="1361" viewBox="0 0 6056 1361" fill="none" xmlns="http://www.w3.org/2000/svg">
<path d="M734.955 11.0369C906.118 -17.8162 1055.53 12.8743 1165.57 101.717C1226 151.307 1269.31 218.924 1278.48 297.567C1288.41 382.889 1257.02 461.487 1210.46 531.169L1057.1 428.926C1079.8 394.829 1100.14 358.113 1099.81 315.874C1099.24 242.582 1023.32 202.555 961.392 185.582C792.724 139.355 576.305 229.781 448.561 324.12C326.899 414.071 231.53 552.621 194.872 702.779C158.997 849.728 176.301 1024.88 313.093 1114.45C582.937 1291.13 919.659 1083.74 1059.91 839.016H675.948V654.549H1316.35V1314.11H1131.88V1021.8C995.314 1226.87 787.217 1360.14 536.174 1360.14C260.993 1360.14 28.9205 1180.06 2.85199 899.88C-21.5304 637.82 116.707 344.259 344.591 175.757C453.589 95.1736 599.251 33.8759 734.955 11.0369ZM3134.54 392.881C3271.38 392.881 3381.38 421.996 3457.46 482.378C3534.16 543.254 3574.12 634.09 3574.12 752.094C3574.12 939.199 3574.14 1129.45 3574.14 1316.55L3387.7 1316.35V1216.83C3325.47 1275.34 3217.4 1330.83 3065.95 1330.83C2934.3 1330.83 2839.18 1303.5 2776.7 1253.99C2713.61 1203.98 2686.03 1133.15 2686.03 1051.76C2686.03 968.181 2711.47 899.651 2768.39 850.597C2824.71 802.066 2909.64 774.554 3024.67 767.481L3388.35 745.721C3388.35 690.558 3376.75 641.472 3326.39 610.218C3285.13 584.61 3223.38 571.249 3143.48 571.248H3116.69C3053.77 571.248 3002.58 583.944 2966.43 604.258C2930.34 624.538 2910.15 651.735 2905.83 681.252L2903.82 694.942H2716.42L2717.43 677.984C2727.09 513.925 2898.23 392.881 3134.54 392.881ZM2019.56 392.669C2177.16 392.669 2307.98 440.272 2399.6 523.342C2491.34 606.524 2542.54 724.197 2542.54 861.646C2542.54 999.1 2491.28 1116.77 2399.52 1199.95C2307.88 1283.02 2177.05 1330.62 2019.56 1330.62C1862.02 1330.62 1731.88 1282.55 1640.95 1199.24C1549.92 1115.83 1499.4 998.179 1499.4 861.646C1499.4 724.27 1549.85 606.598 1640.89 523.386C1731.81 440.278 1861.95 392.669 2019.56 392.669ZM5675.53 1317.07L5459.72 1317.07L5384.15 1001.94H4682.54L4473 1317.07H4247.83L5090.59 65.2869H5371.53L5675.53 1317.07ZM6055.92 1316.6H5870.37V65.0516H6055.92V1316.6ZM4006.01 1316.59H3820.46V65.0379H4006.01V1316.59ZM2007.58 571.256C1823.64 571.256 1686.48 689.478 1686.48 861.867C1686.48 1034.25 1823.65 1152.47 2007.58 1152.47H2034.37C2219.57 1152.47 2355.46 1034.29 2355.46 861.867C2355.46 689.435 2219.78 571.257 2034.37 571.256H2007.58ZM3049.02 930.115C2975.68 934.398 2931.84 949.299 2906.54 969.18C2882.25 988.266 2873.11 1013.52 2873.11 1044.79C2873.11 1070.81 2881.1 1096.49 2906.29 1116.24C2932.24 1136.59 2978.72 1152.47 3059.84 1152.47C3140.88 1152.47 3223.56 1144.66 3295.3 1103.42C3352.06 1070.8 3388.57 1022.71 3388.57 957.68V910.199L3049.02 930.115ZM4797.27 829.697H5342.64L5197.5 229.678L4797.27 829.697Z" fill="black"/>
</svg>
