<svg width="6056" height="1360" viewBox="0 0 6056 1360" fill="none" xmlns="http://www.w3.org/2000/svg">
<path d="M734.955 10.5967C906.118 -18.2564 1055.53 12.4341 1165.57 101.276C1226 150.866 1269.31 218.484 1278.48 297.128C1288.41 382.449 1257.02 461.047 1210.46 530.729L1057.1 428.485C1079.8 394.389 1100.14 357.673 1099.81 315.434C1099.24 242.142 1023.32 202.115 961.391 185.142C792.723 138.915 576.305 229.341 448.561 323.68C326.899 413.631 231.53 552.181 194.872 702.339C158.997 849.288 176.3 1024.44 313.093 1114.01C582.937 1290.69 919.659 1083.31 1059.91 838.577H675.948V654.108H1316.35V1313.67H1131.88V1021.36C995.314 1226.43 787.217 1359.7 536.174 1359.7C260.993 1359.7 28.9205 1179.62 2.85199 899.44C-21.5304 637.38 116.707 343.819 344.591 175.316C453.589 94.7334 599.251 33.4357 734.955 10.5967ZM3134.54 392.44C3271.38 392.441 3381.38 421.556 3457.46 481.938C3534.16 542.813 3574.12 633.65 3574.12 751.654C3574.12 938.76 3574.14 1129.01 3574.14 1316.11L3387.7 1315.91V1216.39C3325.47 1274.9 3217.4 1330.39 3065.95 1330.39C2934.3 1330.39 2839.18 1303.06 2776.7 1253.55C2713.61 1203.54 2686.03 1132.71 2686.03 1051.32C2686.03 967.74 2711.47 899.211 2768.39 850.157C2824.71 801.626 2909.64 774.114 3024.67 767.041L3388.35 745.28C3388.35 690.118 3376.75 641.032 3326.39 609.777C3285.13 584.17 3223.38 570.808 3143.48 570.808H3116.68C3053.77 570.808 3002.58 583.503 2966.43 603.817C2930.34 624.098 2910.15 651.295 2905.83 680.812L2903.82 694.502H2716.42L2717.43 677.544C2727.09 513.484 2898.23 392.441 3134.54 392.44ZM2019.56 392.229C2177.16 392.229 2307.98 439.831 2399.6 522.901C2491.34 606.084 2542.54 723.757 2542.54 861.206C2542.54 998.66 2491.28 1116.33 2399.52 1199.51C2307.88 1282.58 2177.05 1330.18 2019.56 1330.18C1862.02 1330.18 1731.88 1282.11 1640.95 1198.8C1549.92 1115.39 1499.4 997.739 1499.4 861.206C1499.4 723.83 1549.85 606.158 1640.89 522.945C1731.81 439.838 1861.95 392.229 2019.56 392.229ZM5675.53 1316.63L5459.72 1316.63L5384.15 1001.5H4682.54L4473 1316.63H4247.83L5090.59 64.8467H5371.53L5675.53 1316.63ZM6055.92 1316.16H5870.37V64.6114H6055.92V1316.16ZM4006.01 1316.15H3820.46V64.5977H4006.01V1316.15ZM2007.58 570.815C1823.64 570.816 1686.48 689.038 1686.48 861.427C1686.48 1033.81 1823.65 1152.03 2007.58 1152.03H2034.37C2219.57 1152.03 2355.46 1033.85 2355.46 861.427C2355.46 688.994 2219.78 570.817 2034.37 570.815H2007.58ZM3049.02 929.675C2975.68 933.958 2931.84 948.86 2906.54 968.74C2882.25 987.827 2873.11 1013.08 2873.11 1044.35C2873.11 1070.37 2881.1 1096.05 2906.29 1115.8C2932.24 1136.15 2978.72 1152.03 3059.84 1152.03C3140.88 1152.03 3223.56 1144.22 3295.3 1102.98C3352.06 1070.36 3388.57 1022.27 3388.57 957.24V909.759L3049.02 929.675ZM4797.27 829.257H5342.64L5197.5 229.237L4797.27 829.257Z" fill="white"/>
</svg>
